<svg width="1440" height="94" viewBox="0 0 1440 94" fill="none" xmlns="http://www.w3.org/2000/svg">
<mask id="mask0" mask-type="alpha" maskUnits="userSpaceOnUse" x="0" y="0" width="1440" height="94">
<path fill-rule="evenodd" clip-rule="evenodd" d="M0 0H1440V94H0V0Z" fill="white"/>
</mask>
<g mask="url(#mask0)">
<path fill-rule="evenodd" clip-rule="evenodd" d="M0 0H1440V94H0V0Z" fill="#0AB8AD"/>
<path d="M1036.91 106.176C1057.8 197.219 978.367 230.348 913.035 241.236L604.431 292.63L295.827 344.025C230.498 354.9 143.379 354.486 121.392 258.654C99.4081 162.809 179.933 134.482 245.265 123.594L553.869 72.1998L862.473 20.8053C927.804 9.91778 1016.02 15.1342 1036.91 106.176Z" fill="#12CFC9"/>
<path d="M1212.96 29.7125C1281.8 120.849 1209.75 197.543 1142.29 242.368L823.662 454.066L505.029 665.764C437.575 710.574 340.16 753.686 267.696 657.754C195.228 561.806 270.909 489.923 338.36 445.098L656.993 233.4L975.626 21.7021C1043.08 -23.1226 1144.12 -61.4237 1212.96 29.7125Z" fill="#33E5DB"/>
<path d="M1490.2 12.047C1652.55 151.171 1575.92 314 1489.58 418.059L1081.66 909.601L673.751 1401.13C587.388 1505.2 450.945 1616.74 280.064 1470.27C109.168 1323.82 194.338 1168.32 280.7 1064.28L688.621 572.736L1096.54 81.1946C1182.86 -22.8672 1327.85 -127.077 1490.2 12.047Z" fill="#FF5C57"/>
</g>
</svg>
